HIERARCHY
ROOT Hips
{
    OFFSET 13.897937774658203 94.26903533935547 -18.311172485351562
    CHANNELS 6 Xposition Yposition Zposition Zrotation Xrotation Yrotation
    JOINT RightUpLeg
    {
        OFFSET -13.897937774658203 0.0 0.0
        CHANNELS 3 Zrotation Xrotation Yrotation
        JOINT RightLeg
        {
            OFFSET 0.0 -48.49109649658203 0.0
            CHANNELS 3 Zrotation Xrotation Yrotation
            JOINT RightFoot
            {
                OFFSET 0.0 -45.77793884277344 0.0
                CHANNELS 3 Zrotation Xrotation Yrotation
                End Site
                {
                    OFFSET 0.0 0.0 18.311172485351562
                }
            }
        }
    }
    JOINT LeftUpLeg
    {
        OFFSET 13.897937774658203 0.0 0.0
        CHANNELS 3 Zrotation Xrotation Yrotation
        JOINT LeftLeg
        {
            OFFSET 0.0 -48.49109649658203 0.0
            CHANNELS 3 Zrotation Xrotation Yrotation
            JOINT LeftFoot
            {
                OFFSET 0.0 -45.77793884277344 0.0
                CHANNELS 3 Zrotation Xrotation Yrotation
                End Site
                {
                    OFFSET 0.0 0.0 18.311172485351562
                }
            }
        }
    }
    JOINT Spine
    {
        OFFSET 0.0 25.775718688964844 0.0
        CHANNELS 3 Zrotation Xrotation Yrotation
        JOINT Spine3
        {
            OFFSET 0.0 25.762327194213867 0.0
            CHANNELS 3 Zrotation Xrotation Yrotation
            JOINT Neck
            {
                OFFSET 0.0 11.676852226257324 0.0
                CHANNELS 3 Zrotation Xrotation Yrotation
                End Site
                {
                    OFFSET 0.0 4.670741081237793 0.0
                }
            }
            JOINT LeftArm
            {
                OFFSET 14.512945175170898 0.0 0.0
                CHANNELS 3 Zrotation Xrotation Yrotation
                JOINT LeftForeArm
                {
                    OFFSET 29.265605926513672 0.0 0.0
                    CHANNELS 3 Zrotation Xrotation Yrotation
                    JOINT LeftHand
                    {
                        OFFSET 24.438520431518555 0.0 0.0
                        CHANNELS 3 Zrotation Xrotation Yrotation
                        End Site
                        {
                            OFFSET 9.775407791137695 0.0 0.0
                        }
                    }
                }
            }
            JOINT RightArm
            {
                OFFSET -14.512945175170898 0.0 0.0
                CHANNELS 3 Zrotation Xrotation Yrotation
                JOINT RightForeArm
                {
                    OFFSET -29.265605926513672 0.0 0.0
                    CHANNELS 3 Zrotation Xrotation Yrotation
                    JOINT RightHand
                    {
                        OFFSET -24.438520431518555 0.0 0.0
                        CHANNELS 3 Zrotation Xrotation Yrotation
                        End Site
                        {
                            OFFSET -9.775407791137695 0.0 0.0
                        }
                    }
                }
            }
        }
    }
}
MOTION
Frames: 10
Frame Time: 0.03333333333333333
-0.00015532432007603347 93.76109313964844 -0.0008402417879551649 -9.678214658246473 -15.11461441907538 -19.781128425659617 5.665114865491236 25.755598706978784 -3.0239239731004384 -3.0677096603290073 7.827828168270555 -0.4318217855247559 -4.969616689786745e-16 -1.4440025486785188e-32 3.3296431821571193e-15 6.361600743995918 26.64235051675478 -3.44365327213667 0.3461907131291699 6.402492234744177 -0.8046433889803303 1.5902773407317588e-15 9.939233379573489e-17 -2.286023677301903e-15 8.514546254702456 33.79344361378004 -5.481126551496387 -2.0983081059505769e-07 1.435522008877109e-06 -1.8121984592647644 1.2634728778328495 -2.203737430118343 -177.60487734067885 112.15318108976327 -35.16893503404783 -169.26521465404187 2.2005791235326773e-06 -5.068724930248136e-07 25.664893689445123 -6.361109362927033e-15 0.0 0.0 -117.6603405779891 -35.272130344226994 167.3855087051892 4.439217880471657e-06 1.153463270581323e-06 -28.59708665889082 -3.975693351829396e-16 0.0 0.0
-0.00014746165834367275 93.76107788085938 -0.0008181408629752696 -9.467958321759943 -14.870929224992734 -19.537819036907834 5.193971873362081 25.184175273418372 -2.749347461461424 -3.014167890382141 8.128678417620977 -0.3969678200618696 -1.987846675914698e-16 -6.465683053784412e-34 3.7272125173400585e-16 6.025162729994461 26.348977771560843 -3.247274256504342 0.20655918075885585 6.218343992127958 -0.7329400007638586 1.5902773407317584e-15 0.0 0.0 8.618826703985967 33.77397704942912 -5.525134003229668 7.020256813605105e-08 3.2263103022360247e-06 -1.720495905570888 1.4672322791631178 -2.326164908321479 -177.40795825662136 112.0017560888216 -34.50339926045225 -169.28837042628749 -4.769293485787014e-06 2.531700072965886e-06 25.72501563832837 3.1805546814635168e-15 0.0 0.0 -118.03263225362329 -35.733974224756814 167.02752223372218 4.1610751901305285e-06 -1.0672789550086488e-06 -29.005291116125022 6.758678698109972e-15 3.1805546814635168e-15 6.361109362927033e-15
-0.00016092081204988062 93.76107025146484 -0.0008035760256461799 -9.402085117387447 -14.74014425528416 -19.38319159601951 4.888402206211795 24.819421142978207 -2.620773704653458 -3.0417471060920285 8.443740775531756 -0.38198551542698433 3.727212517340068e-17 -3.1797781788557372e-15 3.6153961418198566e-15 5.857819872584037 26.31248253579847 -3.208352534170602 -0.1903814489753626 6.159486838326634 -0.6755849037345715 -3.9756933518293945e-16 3.1805546814635168e-15 -4.572047354603805e-15 8.91041227745844 33.539416829050275 -5.706870203034729 -7.185134495875137e-08 1.7546359434132492e-07 -1.6313145184418532 1.5404232620454268 -2.333200996007002 -176.52313128130618 111.97714003853777 -34.153537572237234 -169.1224769278887 -3.663901024317794e-06 -3.6487080802940877e-06 25.998100346160193 0.0 0.0 0.0 -118.31868435354161 -35.64764535871362 166.8802115997371 -1.1128161035138776e-06 -2.3268993443202253e-06 -29.05622871511729 -3.578124016646457e-15 -3.1805546814635168e-15 -9.931289170612858e-32
-0.000175131659489125 93.76107788085938 -0.0008243692573159933 -9.031414082817566 -14.718702004339795 -18.844438809461117 4.463033503507829 24.442840597534296 -2.5070602122363668 -3.2210527695966578 8.685262819198593 -0.34314072555351915 9.93923337957349e-17 6.465683053784412e-35 7.454425034680117e-17 5.476073033663791 26.193929249681094 -3.1328196434821867 -0.8281859068415779 5.857253079061851 -0.564600568993005 -3.9756933518293955e-16 4.9696166897867425e-17 4.671439688399539e-15 8.874782455169058 33.35969452831929 -5.796403014775332 2.167484285583737e-09 9.783555591241308e-07 -1.5179972145599867 1.6236106943787756 -2.1933845574882915 -176.45200358582557 111.73856550834819 -33.69695642803577 -169.32951330710435 1.2847431482663902e-06 2.9110100592377367e-06 25.623125802599183 7.062250076880254e-31 1.2722218725854067e-14 -6.3611093629270335e-15 -118.42622201499157 -36.29123860247276 166.93411640517007 -2.1834334171125594e-06 2.041311405904413e-06 -29.098320026778797 -2.9817700138720468e-15 -3.1805546814635164e-15 -8.276074308844047e-32
-0.0001418246974935755 93.76103973388672 -0.000816566520370543 -8.846007142807425 -14.90972606135967 -18.40783382353388 4.0650130196695855 24.34683312818404 -2.4164973622871284 -3.472306958103131 8.924773745908944 -0.28651145164846026 -1.987846675914698e-16 -7.37087868131423e-33 4.249022269767667e-15 5.075715045405775 26.30000322631182 -3.055743036577329 -0.896914083926525 5.7263251306886644 -0.5266583245763122 -3.975693351829396e-16 3.1805546814635176e-15 -3.677516350442192e-15 9.018697646899572 33.41726914441148 -6.000522251152717 -1.0986015059066203e-07 1.3982785821128473e-06 -1.3080652536802677 1.591109300070086 -2.4813473190458253 -176.65300241541124 111.592559718944 -33.38724222447166 -169.13799851706486 -9.716706450496568e-07 2.7461111526053453e-06 25.321718358661098 -3.531125038440127e-31 6.3611093629270335e-15 6.3611093629270335e-15 -118.05923889491498 -35.249329698867925 166.92428315028621 5.714087167347768e-06 2.2295405875861823e-06 -28.253843637131688 -3.379339349054986e-15 0.0 0.0
-0.00012257660273462534 93.760986328125 -0.0007961982046253979 -8.50344639582983 -14.879085411441956 -17.93062871755941 3.486013022479556 23.832514250272137 -2.2581777251099364 -3.570747681583733 9.594297136854392 -0.2536799055368975 1.987846675914698e-16 4.969616689786745e-17 2.53450451179124e-15 4.616249148422044 26.120620247444602 -2.968810968035788 -1.0870759991358914 6.068245817484521 -0.524243242566503 3.975693351829396e-16 4.969616689786745e-17 -7.454425034680117e-16 9.052648486167083 33.232800719910124 -6.163642022414429 1.4216279187888995e-06 2.2767936880701836e-07 -1.113058393292653 1.3790869162997064 -2.7365314734937365 -177.22636172657062 112.11158990374896 -34.12588206156184 -168.8193258476637 8.68491196179723e-07 2.637297479223285e-06 25.2040078939663 0.0 -6.361109362927033e-15 0.0 -118.33610128569937 -35.23747550866149 166.58040612212594 -3.5249317815948673e-06 2.9940039379247946e-06 -28.238101501060363 -9.93923337957349e-16 0.0 0.0
-0.00010843751078937203 93.76094055175781 -0.000763912801630795 -8.27957741170201 -14.857284249024417 -17.59890987014868 3.3265813440411 23.337482941610592 -2.2199745229312247 -4.434458757991245 10.30830318670164 -0.12362718054321385 0.0 0.0 -6.957463365701443e-16 4.346021302819317 26.108851453357143 -2.924674639154341 -1.1647394641836817 6.013991958473647 -0.5023337095356186 -1.987846675914698e-16 -3.793200724886855e-33 2.1866313435061676e-15 9.17918102623651 33.21748447120471 -6.330378936022514 -1.7245007351535736e-07 1.6022041266043229e-06 -1.3017860367043883 1.455189236748568 -2.8803314096446466 -176.9609945957092 113.17055585980788 -35.24828380545824 -168.1168683057739 -5.030084484320834e-06 -6.081675697039676e-06 25.294605936277105 -7.062250076880254e-31 -1.2722218725854067e-14 -6.3611093629270335e-15 -118.22812469544766 -35.431536516634026 166.73062545592558 -6.13182681102317e-07 1.788098065218023e-06 -27.926872344511338 -5.963540027744091e-16 -3.180554681463516e-15 3.180554681463516e-15
-8.802590309642255e-05 93.76095581054688 -0.0007454187725670636 -7.5185112844020985 -14.98519973318978 -17.296572942647135 2.2888240120592034 22.857481127886736 -1.9846347689487516 -4.9095367950161775 10.92076312313042 0.041383742266747015 3.975693351829396e-16 -3.1805546814635164e-15 9.939233379573488e-16 3.0315826234209995 25.95427347188513 -2.5691477610974927 -0.9950360633637941 5.973380956945369 -0.44532337662982474 3.125080142662466e-34 -2.4848083448933722e-17 1.4411888400381559e-15 8.571743436820416 33.20893911476683 -6.294555999782911 5.044247900781993e-07 -1.9607453054647365e-06 -1.0750644951088557 1.3448310673540163 -2.7017499252525092 -176.72207956073595 113.21794056187528 -35.148522561684274 -168.49462817260678 -2.63958716811985e-06 2.9448784094941602e-08 24.886844815868407 -3.1805546814635164e-15 -3.1805546814635164e-15 -8.827812596100317e-32 -118.62199470101082 -36.1058820130273 166.5630226919145 -1.4541471931639049e-06 -1.5539098823964664e-06 -28.217382270536902 -1.1927080055488188e-15 3.1805546814635168e-15 3.310429723537619e-32
-7.671979255974293e-05 93.76097106933594 -0.0007466163951903582 -7.147692200825054 -15.139505438957816 -17.17940274627024 1.6621417194854322 22.42928679320379 -1.813782589783419 -5.228713869068389 11.992188171885616 0.17652376534885078 0.0 0.0 -9.93923337957349e-17 2.457056426534854 25.950698567577312 -2.43585178201306 -1.3676578800368984 6.067695588632595 -0.3840300455529878 -1.9878466759146977e-16 -2.3491981762083363e-33 1.3542205479668878e-15 8.133609176043523 33.23523461577076 -6.206040749495203 1.012495226328384e-06 -5.851166157834079e-07 -1.0219169755968576 1.2890191841771104 -2.557144442918961 -176.54847810736578 113.02286812362898 -34.02590154153893 -168.75967035200267 1.921609236376339e-06 -4.1326442023935857e-07 24.34538738707283 6.3611093629270335e-15 3.1805546814635168e-15 -1.7655625192200634e-31 -118.71033881015673 -36.702003387668576 166.2287530402475 -7.963156712086467e-07 -3.957978462871634e-06 -28.443071480821057 -2.3854160110976376e-15 -6.620859447075238e-32 3.1805546814635168e-15
-4.8181616875808686e-05 93.76102447509766 -0.000763708318118006 -6.693969049767386 -15.09654974100253 -16.873500226188256 0.9575660546322459 21.764142824633108 -1.613088406117756 -5.435565441302771 12.970875831719527 0.31610474286777124 6.543271250429825e-32 3.2799470152592518e-15 -2.2860236773019026e-15 1.7529094794993023 25.868767796821892 -2.2528548327006144 -1.3649842110986048 6.097854213408592 -0.3482070055557354 9.939233379573487e-17 3.180554681463516e-15 9.939233379573487e-17 7.7080603376489805 32.900350585075934 -6.082948710066332 -6.002042105570707e-07 9.685835960675586e-07 -1.0564971451387548 1.617540009195029 -2.4174952450569 -176.70436615743242 112.99040149899241 -34.63701341684291 -169.21383795749327 2.102362782801933e-06 1.8075938498257712e-07 24.107619308335167 9.54166404439055e-15 -3.1805546814635168e-15 2.648343778830095e-31 -117.99039209071037 -36.15220001183008 166.67280500575708 -3.124391121050694e-06 -4.183610715771111e-06 -28.008476328718373 -8.5477407064332e-15 -3.180554681463516e-15 -3.1805546814635168e-15
